<svg width="145" height="32" viewBox="0 0 145 32" fill="none" xmlns="http://www.w3.org/2000/svg">
<path d="M44.6482 23.397C40.2324 23.397 37.0276 20.1125 37.0276 15.5832C37.0276 11.0538 40.2863 7.89697 44.607 7.89697C48.1542 7.89697 50.0308 9.93024 50.0498 9.95258L50.0974 10.0037L48.7311 12.1582L48.6519 12.0848C48.636 12.0688 46.9876 10.5431 44.7338 10.5431C41.9125 10.5431 39.9408 12.5987 39.9408 15.5449C39.9408 18.9666 42.3627 20.7541 44.756 20.7541C47.1493 20.7541 48.8991 18.9251 48.915 18.906L48.9911 18.823L50.4936 20.9105L50.4493 20.9648C50.4302 20.9903 48.3697 23.397 44.6545 23.397H44.6482Z" fill="white"/>
<path d="M57.1094 10.9771C53.5463 10.9771 50.6743 13.5466 50.6743 17.1566C50.6743 20.7667 53.5463 23.3362 57.1316 23.3362C60.7168 23.3362 63.5666 20.7923 63.5666 17.1566C63.5666 13.521 60.6946 10.9771 57.1094 10.9771ZM57.1316 20.8338C55.2232 20.8338 53.6382 19.3527 53.6382 17.1535C53.6382 14.9542 55.2232 13.4731 57.1316 13.4731C59.0399 13.4731 60.6027 14.9766 60.6027 17.1535C60.6027 19.3304 59.0177 20.8338 57.1316 20.8338Z" fill="white"/>
<path d="M65.2434 11.2551H68.0457V13.2915C68.0457 13.732 67.9981 14.1246 67.9981 14.1246H68.0457C68.575 12.4361 69.9762 11.0923 71.7672 11.0923C72.043 11.0923 72.2966 11.137 72.2966 11.137V14.0289C72.2966 14.0289 71.9986 13.981 71.6087 13.981C70.3661 13.981 68.965 14.6992 68.4134 16.4579C68.2295 17.0357 68.1598 17.6836 68.1598 18.3795V23.0525H65.2402V11.2519L65.2434 11.2551Z" fill="white"/>
<path d="M82.412 11.2391V12.669C81.648 11.504 80.4244 10.9294 78.719 10.9294C77.0135 10.9294 75.549 11.5008 74.3698 12.7552C73.2761 13.8979 72.6865 15.4397 72.6865 17.0899C72.6865 20.6106 75.2859 23.3174 78.7824 23.3174C80.5956 23.3174 81.7748 22.7907 82.431 21.6001V23.0524H85.0748V11.2359H82.4088L82.412 11.2391ZM78.8711 20.5468C77.0357 20.5468 75.4824 19.0944 75.4824 17.0484C75.4824 15.1332 77.0135 13.6586 78.8268 13.6586C80.64 13.6586 82.1267 15.2003 82.1267 17.1793C82.1267 19.005 80.5766 20.5468 78.8711 20.5468Z" fill="white"/>
<path d="M87.4586 6.95215H90.2957V19.0177C90.2957 20.2881 90.7237 20.6041 91.4686 20.6041C91.6937 20.6041 91.8966 20.5817 91.8966 20.5817V23.1002C91.8966 23.1002 91.4686 23.1672 90.9963 23.1672C89.4208 23.1672 87.4586 22.7586 87.4586 19.4486V6.95215Z" fill="white"/>
<path d="M98.0114 23.0076C97.3711 23.0076 96.4455 22.8831 95.672 22.283C94.7273 21.5553 94.2487 20.3232 94.2487 18.6251V8.02783H95.5357V11.2613H98.4964V12.4646H95.5357V18.5548C95.5357 19.8125 95.8527 20.719 96.4803 21.2488C97.3489 21.983 98.5345 21.7372 98.5408 21.7372L98.7278 21.6957L98.7468 21.884V22.931L98.6232 22.9565C98.5947 22.9629 98.3538 23.0076 98.0146 23.0076H98.0114Z" fill="white"/>
<path d="M101.391 23.0556H100.104V11.1912H101.391V13.4894C101.667 12.9404 102.012 12.4616 102.412 12.0849C103.09 11.4433 103.914 11.1018 104.792 11.1018C105.119 11.1018 105.423 11.1625 105.48 11.1752L105.616 11.2008V12.4967L105.439 12.468C105.376 12.4584 105.138 12.4233 104.929 12.4233C104.152 12.4233 103.467 12.7297 102.89 13.333C102.386 13.8628 101.981 14.6066 101.721 15.4907C101.502 16.1866 101.388 16.9973 101.388 17.8336V23.062L101.391 23.0556Z" fill="white"/>
<path d="M116.163 11.2325V13.502C115.006 11.8709 113.415 11.0474 111.421 11.0474C108.035 11.0474 105.483 13.6552 105.483 17.1089C105.483 20.5625 108.092 23.2757 111.421 23.2757C113.38 23.2757 114.857 22.516 116.163 20.8243V23.0905H117.298V11.2325H116.163ZM111.484 22.2351C108.824 22.2351 106.659 19.9624 106.659 17.1695C106.659 14.3766 108.733 12.0847 111.379 12.0847C114.026 12.0847 116.141 14.3638 116.141 17.2748C116.141 19.9178 113.963 22.2351 111.484 22.2351Z" fill="white"/>
<path d="M124.262 23.0651H123.32L118.626 11.207H119.973L123.492 20.2306C123.593 20.4988 123.685 20.7988 123.755 21.035C123.824 20.7988 123.92 20.502 124.018 20.2338L127.54 11.2102H128.862L124.259 23.0683L124.262 23.0651Z" fill="white"/>
<path d="M139.186 19.1391C138.381 21.083 136.85 22.197 134.989 22.197C132.532 22.197 130.697 20.3393 130.475 17.6613H140.686V17.4187C140.6 13.5852 138.289 11.0093 134.932 11.0093C133.433 11.0093 132.028 11.6477 130.976 12.8031C129.92 13.9618 129.34 15.5131 129.34 17.1761C129.34 20.5979 131.841 23.2791 135.03 23.2791C137.436 23.2791 139.319 21.8746 140.334 19.3211L140.464 18.9923H139.25L139.189 19.1391H139.186ZM135.049 12.0467C137.398 12.0467 139.088 13.748 139.487 16.4994H130.494C130.9 13.7895 132.675 12.0467 135.049 12.0467Z" fill="white"/>
<path d="M144.439 22.9919C143.884 22.9919 142.071 22.8099 142.071 20.4479V6.65552H143.326V20.151C143.326 21.7725 144.214 21.7725 144.509 21.7725C144.677 21.7725 144.826 21.7502 144.826 21.7502L145 21.7247V22.9121L144.88 22.9376C144.88 22.9376 144.658 22.9855 144.439 22.9855V22.9919Z" fill="white"/>
<path d="M16.0867 31.3898C23.2699 31.3898 29.3182 26.4965 31.1219 19.8381H1.05151C2.8584 26.4965 8.90354 31.3898 16.0899 31.3898H16.0867Z" fill="#4FADDB"/>
<path d="M16.0869 31.3897C20.4202 31.3897 24.3415 29.6086 27.1659 26.7327H5.00781C7.83226 29.6086 11.7535 31.3897 16.0869 31.3897Z" fill="#0077B1"/>
<path d="M1.05158 19.8383H31.1251C31.4833 18.5168 31.6767 17.1283 31.6767 15.6951C31.6767 12.9979 31.0015 10.4603 29.8096 8.24194H2.36711C1.17837 10.4603 0.5 12.9979 0.5 15.6951C0.5 17.1283 0.693368 18.52 1.05158 19.8383Z" fill="#FAB60D"/>
<path d="M1.04841 19.8349H31.1251C31.4833 18.5166 31.6735 17.1281 31.6735 15.6982C31.6735 14.9289 31.6165 14.1724 31.5119 13.4319H0.661669C0.55389 14.1724 0.5 14.9289 0.5 15.6982C0.5 17.1313 0.690198 18.5166 1.04841 19.8349Z" fill="#E65014"/>
<path d="M2.37024 8.23841H29.8064C29.0551 6.84034 28.1009 5.57314 26.9819 4.47192H5.19468C4.07568 5.57314 3.11835 6.84353 2.36707 8.23841H2.37024Z" fill="#FDCE86"/>
<path d="M5.13757 4.52617H27.0357C24.2208 1.72684 20.3534 0 16.0867 0C11.8199 0 7.95251 1.72684 5.13757 4.52617Z" fill="#EE762D"/>
</svg>
